<svg width="101" height="101" viewBox="0 0 101 101" fill="none" xmlns="http://www.w3.org/2000/svg">
<circle cx="50.5" cy="50.5" r="50.5" fill="white"/>
<path d="M20.428 60V40.4H24.068V57.144H32.748V60H20.428ZM41.2007 60.336C39.8007 60.336 38.5407 60.028 37.4207 59.412C36.3007 58.796 35.4141 57.9373 34.7607 56.836C34.1074 55.7347 33.7807 54.4747 33.7807 53.056C33.7807 51.6187 34.1074 50.3587 34.7607 49.276C35.4141 48.1747 36.3007 47.316 37.4207 46.7C38.5594 46.084 39.8194 45.776 41.2007 45.776C42.6007 45.776 43.8607 46.084 44.9807 46.7C46.1007 47.316 46.9874 48.1747 47.6407 49.276C48.2941 50.3587 48.6207 51.6187 48.6207 53.056C48.6207 54.4747 48.2941 55.7347 47.6407 56.836C46.9874 57.9373 46.1007 58.796 44.9807 59.412C43.8607 60.028 42.6007 60.336 41.2007 60.336ZM41.2007 57.2C41.8727 57.2 42.4887 57.0507 43.0487 56.752C43.6087 56.4347 44.0474 55.968 44.3647 55.352C44.7007 54.736 44.8687 53.9707 44.8687 53.056C44.8687 52.1413 44.7007 51.376 44.3647 50.76C44.0287 50.144 43.5807 49.6867 43.0207 49.388C42.4794 49.0707 41.8821 48.912 41.2287 48.912C40.5567 48.912 39.9407 49.0707 39.3807 49.388C38.8207 49.7053 38.3727 50.172 38.0367 50.788C37.7007 51.3853 37.5327 52.1413 37.5327 53.056C37.5327 53.9707 37.6914 54.736 38.0087 55.352C38.3447 55.968 38.7927 56.4347 39.3527 56.752C39.9127 57.0507 40.5287 57.2 41.2007 57.2ZM58.0335 66.496C56.8389 66.496 55.7002 66.3 54.6175 65.908C53.5535 65.516 52.6482 64.9 51.9015 64.06C51.1549 63.2387 50.7069 62.1747 50.5575 60.868H54.1695C54.3375 61.6333 54.7669 62.24 55.4575 62.688C56.1669 63.136 56.9975 63.36 57.9495 63.36C58.6589 63.36 59.3029 63.2107 59.8815 62.912C60.4789 62.6133 60.9549 62.1653 61.3095 61.568C61.6642 60.9893 61.8415 60.2427 61.8415 59.328V57.592C61.5615 58.04 61.1975 58.4507 60.7495 58.824C60.3015 59.1973 59.7695 59.5053 59.1535 59.748C58.5562 59.972 57.8655 60.084 57.0815 60.084C55.7562 60.084 54.5615 59.7667 53.4975 59.132C52.4522 58.4973 51.6215 57.6387 51.0055 56.556C50.4082 55.4733 50.1095 54.26 50.1095 52.916C50.1095 51.5533 50.4082 50.34 51.0055 49.276C51.6215 48.1933 52.4522 47.344 53.4975 46.728C54.5615 46.0933 55.7562 45.776 57.0815 45.776C58.1455 45.776 59.0882 46 59.9095 46.448C60.7309 46.8773 61.3749 47.4093 61.8415 48.044V46.112H65.4815V59.132C65.4815 60.7373 65.1362 62.0813 64.4455 63.164C63.7735 64.2653 62.8682 65.096 61.7295 65.656C60.6095 66.216 59.3775 66.496 58.0335 66.496ZM57.8095 56.92C58.6122 56.92 59.3029 56.7427 59.8815 56.388C60.4789 56.0333 60.9455 55.5573 61.2815 54.96C61.6175 54.3627 61.7855 53.6907 61.7855 52.944C61.7855 52.16 61.6175 51.4693 61.2815 50.872C60.9455 50.2747 60.4789 49.808 59.8815 49.472C59.3029 49.1173 58.6122 48.94 57.8095 48.94C57.0255 48.94 56.3349 49.1173 55.7375 49.472C55.1402 49.808 54.6642 50.2747 54.3095 50.872C53.9735 51.4693 53.8055 52.1507 53.8055 52.916C53.8055 53.6627 53.9735 54.344 54.3095 54.96C54.6642 55.5573 55.1402 56.0333 55.7375 56.388C56.3349 56.7427 57.0255 56.92 57.8095 56.92ZM74.6968 60.336C73.2968 60.336 72.0368 60.028 70.9168 59.412C69.7968 58.796 68.9101 57.9373 68.2568 56.836C67.6035 55.7347 67.2768 54.4747 67.2768 53.056C67.2768 51.6187 67.6035 50.3587 68.2568 49.276C68.9101 48.1747 69.7968 47.316 70.9168 46.7C72.0555 46.084 73.3155 45.776 74.6968 45.776C76.0968 45.776 77.3568 46.084 78.4768 46.7C79.5968 47.316 80.4835 48.1747 81.1368 49.276C81.7901 50.3587 82.1168 51.6187 82.1168 53.056C82.1168 54.4747 81.7901 55.7347 81.1368 56.836C80.4835 57.9373 79.5968 58.796 78.4768 59.412C77.3568 60.028 76.0968 60.336 74.6968 60.336ZM74.6968 57.2C75.3688 57.2 75.9848 57.0507 76.5448 56.752C77.1048 56.4347 77.5435 55.968 77.8608 55.352C78.1968 54.736 78.3648 53.9707 78.3648 53.056C78.3648 52.1413 78.1968 51.376 77.8608 50.76C77.5248 50.144 77.0768 49.6867 76.5168 49.388C75.9755 49.0707 75.3781 48.912 74.7248 48.912C74.0528 48.912 73.4368 49.0707 72.8768 49.388C72.3168 49.7053 71.8688 50.172 71.5328 50.788C71.1968 51.3853 71.0288 52.1413 71.0288 53.056C71.0288 53.9707 71.1875 54.736 71.5048 55.352C71.8408 55.968 72.2888 56.4347 72.8488 56.752C73.4088 57.0507 74.0248 57.2 74.6968 57.2Z" fill="black"/>
</svg>
